<?xml version="1.0" encoding="iso-8859-1"?>
<!-- Generator: Adobe Illustrator 19.0.0, SVG Export Plug-In . SVG Version: 6.00 Build 0)  -->
<svg version="1.1" id="Layer_1" xmlns="http://www.w3.org/2000/svg" xmlns:xlink="http://www.w3.org/1999/xlink" x="0px" y="0px"
	 viewBox="0 0 469.333 469.333" style="enable-background:new 0 0 469.333 469.333;" xml:space="preserve">
<g>
	<g>
		<g>
			<path d="M160,0c-5.896,0-10.667,4.771-10.667,10.667v138.667H10.667C4.771,149.333,0,154.104,0,160
				c0,5.896,4.771,10.667,10.667,10.667H160c5.896,0,10.667-4.771,10.667-10.667V10.667C170.667,4.771,165.896,0,160,0z"/>
			<path d="M309.333,170.667h149.333c5.896,0,10.667-4.771,10.667-10.667c0-5.896-4.771-10.667-10.667-10.667H320V10.667
				C320,4.771,315.229,0,309.333,0c-5.896,0-10.667,4.771-10.667,10.667V160C298.667,165.896,303.437,170.667,309.333,170.667z"/>
			<path d="M458.667,298.667H309.333c-5.896,0-10.667,4.771-10.667,10.667v149.333c0,5.896,4.771,10.667,10.667,10.667
				c5.896,0,10.667-4.771,10.667-10.667V320h138.667c5.896,0,10.667-4.771,10.667-10.667
				C469.333,303.437,464.563,298.667,458.667,298.667z"/>
			<path d="M160,298.667H10.667C4.771,298.667,0,303.437,0,309.333C0,315.229,4.771,320,10.667,320h138.667v138.667
				c0,5.896,4.771,10.667,10.667,10.667c5.896,0,10.667-4.771,10.667-10.667V309.333C170.667,303.437,165.896,298.667,160,298.667z"
				/>
		</g>
	</g>
</g>
<g>
</g>
<g>
</g>
<g>
</g>
<g>
</g>
<g>
</g>
<g>
</g>
<g>
</g>
<g>
</g>
<g>
</g>
<g>
</g>
<g>
</g>
<g>
</g>
<g>
</g>
<g>
</g>
<g>
</g>
</svg>
