<?xml version="1.0" encoding="iso-8859-1"?>
<!-- Generator: Adobe Illustrator 19.0.0, SVG Export Plug-In . SVG Version: 6.00 Build 0)  -->
<svg version="1.1" id="Layer_1" xmlns="http://www.w3.org/2000/svg" xmlns:xlink="http://www.w3.org/1999/xlink" x="0px" y="0px"
	 viewBox="0 0 469.333 469.333" style="enable-background:new 0 0 469.333 469.333;" xml:space="preserve">
<g>
	<g>
		<g>
			<path d="M160,0H10.667C4.771,0,0,4.771,0,10.667V160c0,5.896,4.771,10.667,10.667,10.667S21.333,165.896,21.333,160V21.333H160
				c5.896,0,10.667-4.771,10.667-10.667S165.896,0,160,0z"/>
			<path d="M458.667,0H309.333c-5.896,0-10.667,4.771-10.667,10.667s4.771,10.667,10.667,10.667H448V160
				c0,5.896,4.771,10.667,10.667,10.667c5.896,0,10.667-4.771,10.667-10.667V10.667C469.333,4.771,464.563,0,458.667,0z"/>
			<path d="M458.667,298.667c-5.896,0-10.667,4.771-10.667,10.667V448H309.333c-5.896,0-10.667,4.771-10.667,10.667
				c0,5.896,4.771,10.667,10.667,10.667h149.333c5.896,0,10.667-4.771,10.667-10.667V309.333
				C469.333,303.437,464.563,298.667,458.667,298.667z"/>
			<path d="M160,448H21.333V309.333c0-5.896-4.771-10.667-10.667-10.667S0,303.437,0,309.333v149.333
				c0,5.896,4.771,10.667,10.667,10.667H160c5.896,0,10.667-4.771,10.667-10.667C170.667,452.771,165.896,448,160,448z"/>
		</g>
	</g>
</g>
<g>
</g>
<g>
</g>
<g>
</g>
<g>
</g>
<g>
</g>
<g>
</g>
<g>
</g>
<g>
</g>
<g>
</g>
<g>
</g>
<g>
</g>
<g>
</g>
<g>
</g>
<g>
</g>
<g>
</g>
</svg>
